<svg width="47" height="47" viewBox="0 0 47 47" fill="none" xmlns="http://www.w3.org/2000/svg">
<path d="M13.5083 31.2528C13.6216 31.3449 13.6994 31.4735 13.7283 31.6166C13.7573 31.7597 13.7356 31.9085 13.667 32.0374C13.5984 32.1663 13.4871 32.2673 13.3522 32.3233C13.2173 32.3792 13.0672 32.3865 12.9275 32.3439C10.6169 31.6396 7.74128 30.7628 5.37961 28.8446C5.24997 28.7393 5.16746 28.5868 5.15025 28.4206C5.13304 28.2545 5.18253 28.0884 5.28783 27.9587C5.39313 27.8291 5.54561 27.7466 5.71174 27.7294C5.87787 27.7121 6.04404 27.7616 6.17368 27.8669C8.34401 29.6298 11.0883 30.468 13.2947 31.1396C13.3726 31.1631 13.4451 31.2016 13.5083 31.2528Z" fill="#8C91FF"/>
<path d="M7.57203 30.0578C7.558 30.0578 7.54396 30.0578 7.52957 30.0578C7.36294 30.0467 7.20753 29.9699 7.09754 29.8442C6.98754 29.7186 6.93195 29.5544 6.94301 29.3877C6.98942 28.6522 6.96399 28.8939 6.86708 28.1633C6.85478 28.0806 6.85908 27.9962 6.87973 27.9152C6.90039 27.8341 6.93698 27.758 6.98738 27.6912C7.03778 27.6245 7.10097 27.5684 7.17327 27.5264C7.24556 27.4843 7.32551 27.457 7.40845 27.4462C7.49139 27.4354 7.57566 27.4412 7.65633 27.4633C7.737 27.4854 7.81247 27.5233 7.87831 27.5749C7.94416 27.6265 7.99907 27.6907 8.03984 27.7637C8.08061 27.8367 8.10643 27.9172 8.11577 28.0003C8.22359 28.8126 8.25167 28.6534 8.19962 29.4712C8.18877 29.6303 8.11795 29.7793 8.00145 29.8882C7.88496 29.9971 7.73149 30.0577 7.57203 30.0578Z" fill="#8C91FF"/>
<path d="M8.00808 29.6282C8.0081 29.6142 8.00812 29.6001 8.00815 29.5857C7.99732 29.4191 7.92074 29.2636 7.79525 29.1534C7.66976 29.0432 7.50565 28.9874 7.339 28.9982C6.60339 29.0434 5.86511 29.0169 5.13466 28.9188C5.05195 28.9064 4.96758 28.9106 4.8865 28.9311C4.80541 28.9516 4.72923 28.9881 4.6624 29.0384C4.59557 29.0887 4.53942 29.1518 4.49725 29.2241C4.45507 29.2963 4.4277 29.3762 4.41675 29.4591C4.4058 29.542 4.41147 29.6263 4.43344 29.707C4.45542 29.7877 4.49324 29.8633 4.54472 29.9292C4.5962 29.9951 4.6603 30.0501 4.73327 30.091C4.80624 30.1319 4.88663 30.1578 4.96973 30.1673C5.78186 30.2764 6.60272 30.3057 7.42056 30.2549C7.57966 30.2443 7.7288 30.1737 7.83785 30.0574C7.94691 29.941 8.00775 29.7877 8.00808 29.6282Z" fill="#8C91FF"/>
<path d="M32.3192 20.6018C40.3965 30.6982 36.7616 43.7224 23.0307 43.7224C9.29976 43.7224 5.66488 30.6982 13.7421 20.6018H32.3192Z" fill="url(#paint0_linear_8_42)"/>
<path d="M34.3956 33.062C34.3815 33.062 34.3675 33.062 34.3531 33.062C34.1865 33.0509 34.0311 32.9741 33.9211 32.8484C33.8111 32.7228 33.7555 32.5586 33.7666 32.3919C33.813 31.6564 33.7875 30.9181 33.6906 30.1875C33.6783 30.1047 33.6826 30.0204 33.7033 29.9393C33.7239 29.8583 33.7605 29.7821 33.8109 29.7154C33.8613 29.6486 33.9245 29.5926 33.9968 29.5505C34.0691 29.5085 34.1491 29.4812 34.232 29.4704C34.3149 29.4596 34.3992 29.4654 34.4799 29.4875C34.5606 29.5096 34.636 29.5475 34.7019 29.5991C34.7677 29.6507 34.8226 29.7148 34.8634 29.7879C34.9042 29.8609 34.93 29.9413 34.9393 30.0245C35.0471 30.8367 35.0752 31.6576 35.0232 32.4754C35.0123 32.6345 34.9415 32.7835 34.825 32.8924C34.7085 33.0013 34.555 33.0619 34.3956 33.062Z" fill="#8C91FF"/>
<path d="M29.1784 9.39944L25.9977 6.2187L28.4555 3.27474C28.6872 2.99709 28.9742 2.77076 29.2982 2.61016C29.6222 2.44957 29.9761 2.35824 30.3374 2.34199C30.6987 2.32574 31.0594 2.38492 31.3965 2.51578C31.7336 2.64663 32.0398 2.84629 32.2955 3.10201C32.5512 3.35771 32.7508 3.66388 32.8817 4.001C33.0126 4.33813 33.0717 4.69881 33.0555 5.06008C33.0392 5.42134 32.9479 5.77526 32.7873 6.09928C32.6267 6.42329 32.4004 6.7103 32.1227 6.942L29.1784 9.39944Z" fill="#8C91FF"/>
<path d="M16.8829 9.39944L20.0637 6.2187L17.6059 3.27474C17.3742 2.99709 17.0872 2.77076 16.7632 2.61016C16.4391 2.44957 16.0852 2.35824 15.724 2.34199C15.3627 2.32574 15.002 2.38492 14.6649 2.51578C14.3278 2.64663 14.0216 2.84629 13.7659 3.10201C13.5102 3.35771 13.3105 3.66388 13.1797 4.001C13.0488 4.33813 12.9896 4.69881 13.0059 5.06008C13.0221 5.42134 13.1134 5.77526 13.274 6.09928C13.4346 6.42329 13.661 6.7103 13.9386 6.942L16.8829 9.39944Z" fill="#8C91FF"/>
<path d="M35.9764 23.4708C33.3945 27.7808 28.231 29.3282 23.0307 29.3282C17.8305 29.3282 12.6669 27.7808 10.085 23.4708C7.70673 19.4225 12.4867 17.3965 13.4162 12.6411C14.5022 7.67257 18.1245 5.03809 23.0307 5.03809C27.937 5.03809 31.5592 7.67257 32.6453 12.6411C33.5744 17.3965 38.3547 19.4225 35.9764 23.4708Z" fill="url(#paint1_linear_8_42)"/>
<path d="M28.6346 18.0858C28.4958 18.0858 28.3609 18.0398 28.2508 17.9552C28.1408 17.8705 28.0618 17.7519 28.0261 17.6177C27.9904 17.4836 28 17.3414 28.0534 17.2132C28.1069 17.0851 28.2011 16.9782 28.3216 16.9091C30.756 15.5183 34.7989 14.0796 37.3557 14.0796C37.5227 14.0796 37.6829 14.1459 37.801 14.264C37.9191 14.3821 37.9854 14.5423 37.9854 14.7093C37.9854 14.8764 37.9191 15.0365 37.801 15.1546C37.6829 15.2727 37.5227 15.3391 37.3557 15.3391C35.0407 15.3391 31.1885 16.7216 28.9463 18.002C28.8515 18.0566 28.744 18.0855 28.6346 18.0858Z" fill="#8C91FF"/>
<path d="M29.5279 20.5285C29.3819 20.5285 29.2404 20.4777 29.1277 20.3849C29.015 20.2921 28.938 20.1629 28.91 20.0196C28.882 19.8763 28.9047 19.7277 28.9741 19.5993C29.0436 19.4708 29.1555 19.3705 29.2908 19.3155C31.5283 18.4054 34.3132 17.2729 37.3558 17.2729C37.5228 17.2729 37.683 17.3393 37.8011 17.4574C37.9192 17.5755 37.9855 17.7357 37.9855 17.9027C37.9855 18.0697 37.9192 18.2299 37.8011 18.348C37.683 18.4661 37.5228 18.5324 37.3558 18.5324C34.5597 18.5324 31.9011 19.612 29.765 20.4818C29.6898 20.5126 29.6092 20.5285 29.5279 20.5285Z" fill="#8C91FF"/>
<path d="M17.4267 18.0863C17.3174 18.0862 17.2099 18.0576 17.1151 18.0032C14.8728 16.7221 11.0206 15.3403 8.70567 15.3403C8.53865 15.3403 8.37848 15.2739 8.26038 15.1558C8.14228 15.0377 8.07593 14.8776 8.07593 14.7106C8.07593 14.5435 8.14228 14.3834 8.26038 14.2653C8.37848 14.1472 8.53865 14.0808 8.70567 14.0808C11.2606 14.0808 15.3054 15.5202 17.738 16.9103C17.8584 16.9794 17.9527 17.0863 18.0061 17.2144C18.0596 17.3426 18.0692 17.4848 18.0335 17.619C17.9978 17.7531 17.9188 17.8718 17.8087 17.9564C17.6987 18.041 17.5637 18.087 17.4249 18.0871L17.4267 18.0863Z" fill="#8C91FF"/>
<path d="M16.5336 20.5285C16.4523 20.5286 16.3717 20.5128 16.2964 20.4821C14.1603 19.612 11.5017 18.5324 8.70567 18.5324C8.53865 18.5324 8.37848 18.4661 8.26038 18.348C8.14228 18.2299 8.07593 18.0697 8.07593 17.9027C8.07593 17.7357 8.14228 17.5755 8.26038 17.4574C8.37848 17.3393 8.53865 17.2729 8.70567 17.2729C11.7482 17.2729 14.5331 18.405 16.7707 19.3151C16.906 19.3701 17.0179 19.4705 17.0874 19.5989C17.1568 19.7274 17.1795 19.876 17.1515 20.0193C17.1234 20.1626 17.0465 20.2917 16.9338 20.3845C16.8211 20.4774 16.6796 20.5281 16.5336 20.5282V20.5285Z" fill="#8C91FF"/>
<path d="M20.032 43.7222H12.7147V41.9499C12.7147 41.3773 12.9422 40.8281 13.3471 40.4232C13.752 40.0183 14.3012 39.7908 14.8738 39.7908H17.8729C18.4455 39.7908 18.9947 40.0183 19.3996 40.4232C19.8045 40.8281 20.032 41.3773 20.032 41.9499V43.7222Z" fill="url(#paint2_linear_8_42)"/>
<path d="M32.972 43.7222H25.6548V41.9499C25.6548 41.3773 25.8823 40.8281 26.2872 40.4232C26.6921 40.0183 27.2413 39.7908 27.8139 39.7908H30.8129C31.3856 39.7908 31.9347 40.0183 32.3397 40.4232C32.7446 40.8281 32.972 41.3773 32.972 41.9499V43.7222Z" fill="url(#paint3_linear_8_42)"/>
<path d="M18.6822 13.5346C19.2784 13.5346 19.7618 13.0513 19.7618 12.455C19.7618 11.8588 19.2784 11.3755 18.6822 11.3755C18.086 11.3755 17.6027 11.8588 17.6027 12.455C17.6027 13.0513 18.086 13.5346 18.6822 13.5346Z" fill="#1F1F1F"/>
<path d="M27.3791 13.5346C27.9753 13.5346 28.4587 13.0513 28.4587 12.455C28.4587 11.8588 27.9753 11.3755 27.3791 11.3755C26.7829 11.3755 26.2996 11.8588 26.2996 12.455C26.2996 13.0513 26.7829 13.5346 27.3791 13.5346Z" fill="#1F1F1F"/>
<path d="M27.4457 22.9227C27.3528 22.784 27.2086 22.6878 27.0449 22.6551C26.8812 22.6224 26.7112 22.6559 26.572 22.7482C25.8851 23.0934 25.0991 23.1872 24.3503 23.0134L24.3143 23.0059C24.0837 22.9557 23.8626 22.8691 23.6594 22.7493V20.7816C23.6594 20.6146 23.593 20.4544 23.4749 20.3363C23.3568 20.2182 23.1966 20.1519 23.0296 20.1519C22.8626 20.1519 22.7024 20.2182 22.5843 20.3363C22.4662 20.4544 22.3999 20.6146 22.3999 20.7816V22.7486C22.1979 22.8676 21.9783 22.9538 21.7493 23.0041H21.7421C21.7367 23.0041 21.7334 23.0066 21.7338 23.0069C21.719 23.0091 21.7046 23.0116 21.6903 23.0148C20.9478 23.1841 20.1695 23.0893 19.4894 22.7468C19.3507 22.6553 19.1814 22.6224 19.0185 22.6552C18.8556 22.688 18.7123 22.7838 18.6197 22.9219C18.5272 23.0599 18.493 23.2289 18.5245 23.392C18.556 23.5552 18.6507 23.6992 18.788 23.7929C19.4442 24.1777 20.1954 24.3701 20.9558 24.3481C21.2851 24.3488 21.6137 24.316 21.9364 24.2502C21.9525 24.2477 21.9683 24.2441 21.9839 24.2394C21.9965 24.2373 22.0094 24.2351 22.022 24.2319C22.3761 24.1539 22.716 24.0216 23.0296 23.8396C23.3526 24.0251 23.7023 24.1595 24.0664 24.238C24.0696 24.238 24.1023 24.2463 24.1074 24.247C25.2154 24.4823 26.5162 24.2963 27.2698 23.7936C27.4082 23.7011 27.5044 23.5576 27.5374 23.3944C27.5703 23.2313 27.5374 23.0617 27.4457 22.9227Z" fill="#1F1F1F"/>
<path d="M21.4833 19.6345C21.4742 19.8431 21.5076 20.0514 21.5812 20.2468C21.6548 20.4422 21.7672 20.6207 21.9117 20.7715C22.0561 20.9223 22.2296 21.0424 22.4216 21.1243C22.6137 21.2063 22.8204 21.2486 23.0292 21.2486C23.238 21.2486 23.4447 21.2063 23.6367 21.1243C23.8288 21.0424 24.0022 20.9223 24.1467 20.7715C24.2911 20.6207 24.4035 20.4422 24.4772 20.2468C24.5508 20.0514 24.5841 19.8431 24.5751 19.6345C24.5751 18.9148 23.8828 18.5974 23.0277 18.5974C22.1727 18.5974 21.4833 18.9155 21.4833 19.6345Z" fill="#1F1F1F"/>
<defs>
<linearGradient id="paint0_linear_8_42" x1="23.0307" y1="20.6018" x2="23.0307" y2="43.7224" gradientUnits="userSpaceOnUse">
<stop stop-color="#F7F2FF"/>
<stop offset="1" stop-color="#CDCFFF"/>
</linearGradient>
<linearGradient id="paint1_linear_8_42" x1="23.0307" y1="5.03809" x2="23.0307" y2="29.3282" gradientUnits="userSpaceOnUse">
<stop stop-color="#F7F2FF"/>
<stop offset="1" stop-color="#CDCFFF"/>
</linearGradient>
<linearGradient id="paint2_linear_8_42" x1="16.3734" y1="43.7222" x2="16.3734" y2="39.7908" gradientUnits="userSpaceOnUse">
<stop stop-color="#AEB0F3"/>
<stop offset="1" stop-color="#F6F1FF"/>
</linearGradient>
<linearGradient id="paint3_linear_8_42" x1="29.3134" y1="43.7222" x2="29.3134" y2="39.7908" gradientUnits="userSpaceOnUse">
<stop stop-color="#AEB0F3"/>
<stop offset="1" stop-color="#F6F1FF"/>
</linearGradient>
</defs>
</svg>
